#!OML:ASF H:\Dans Jumps\Project 1\Capture day 1\Session 1\subject.ASF
:FULLY-SPECIFIED
:DEGREES
92
root 0.562681 17.5426 -13.9325 5.19322 0.088735 -1.82841
lowerback -4.33236 -0.680894 0.906863
upperback 1.57048 -1.03572 1.87745
thorax 4.06981 -0.516867 1.34831
lowerneck -12.7947 -0.226382 -2.45114
upperneck 3.1571 0.0242674 0.943222
head 3.29477 0.0166481 0.749194
rclavicle -3.52843e-015 -3.97569e-015
rhumerus -25.5903 -20.7398 -79.2606
rradius 24.4321
rwrist 34.06
rhand -16.8959 -27.2648
rfingers 7.12502
rthumb 9.33574 -57.038
lclavicle -3.52843e-015 -3.97569e-015
lhumerus -22.9653 -2.54788 90.143
lradius 19.4867
lwrist 3.13047
lhand -24.3389 -2.83601
lfingers 7.12502
lthumb 2.15007 27.1329
rfemur -10.7414 -3.0904 19.8985
rtibia 19.1659
rfoot -12.9508 -2.00092
rtoes 3.54555
lfemur -9.35205 8.81385 -17.5929
ltibia 16.2875
lfoot -10.9219 2.85537
ltoes -6.83744
93
root 0.563954 17.5422 -13.9335 5.18747 0.0770999 -1.82569
lowerback -4.32688 -0.679995 0.906272
upperback 1.57676 -1.03434 1.87286
thorax 4.07312 -0.516135 1.34405
lowerneck -12.7985 -0.227025 -2.45895
upperneck 3.16292 0.0238031 0.957137
head 3.29764 0.0168902 0.755222
rclavicle 6.01324e-015 6.75868e-015
rhumerus -25.6005 -20.7488 -79.2448
rradius 24.4111
rwrist 34.082
rhand -16.8998 -27.2645
rfingers 7.12502
rthumb 9.33204 -57.038
lclavicle 6.01324e-015 6.75868e-015
lhumerus -22.9608 -2.5218 90.1231
lradius 19.4822
lwrist 3.13038
lhand -24.3364 -2.85152
lfingers 7.12502
lthumb 2.15243 27.1174
rfemur -10.7458 -3.0911 19.8906
rtibia 19.1767
rfoot -12.9549 -1.99269
rtoes 3.51173
lfemur -9.35199 8.81436 -17.6007
ltibia 16.2961
lfoot -10.9199 2.86483
ltoes -6.83944
94
root 0.56514 17.5419 -13.9346 5.18132 0.0679534 -1.822
lowerback -4.3197 -0.679846 0.905265
upperback 1.58159 -1.03381 1.86726
thorax 4.07396 -0.515831 1.33892
lowerneck -12.8008 -0.227485 -2.46023
upperneck 3.17112 0.022957 0.964393
head 3.30101 0.0167289 0.757857
rclavicle 1.98785e-015 1.98785e-015
rhumerus -25.6139 -20.7559 -79.2297
rradius 24.3932
rwrist 34.107
rhand -16.9048 -27.2606
rfingers 7.12502
rthumb 9.3272 -57.0343
lclavicle 1.98785e-015 1.98785e-015
lhumerus -22.9594 -2.50259 90.1038
lradius 19.477
lwrist 3.13892
lhand -24.3322 -2.85447
lfingers 7.12502
lthumb 2.15658 27.1144
rfemur -10.7498 -3.09164 19.882
rtibia 19.188
rfoot -12.9588 -1.9862
rtoes 3.48384
lfemur -9.35142 8.81434 -17.6091
ltibia 16.304
lfoot -10.9179 2.87279
ltoes -6.84391
95
root 0.566292 17.5416 -13.9357 5.17464 0.0626506 -1.81653
lowerback -4.31136 -0.681299 0.902271
upperback 1.58647 -1.03529 1.8616
thorax 4.07427 -0.51657 1.33471
lowerneck -12.8057 -0.227436 -2.45788
upperneck 3.18393 0.0226387 0.966274
head 3.30644 0.0166205 0.758137
rclavicle 5.06901e-015 -1.98785e-015
rhumerus -25.6257 -20.7698 -79.2117
rradius 24.3705
rwrist 34.1508
rhand -16.9229 -27.2369
rfingers 7.12502
rthumb 9.3097 -57.0114
lclavicle 5.06901e-015 -1.98785e-015
lhumerus -22.9586 -2.48341 90.0852
lradius 19.4714
lwrist 3.14682
lhand -24.3283 -2.85742
lfingers 7.12502
lthumb 2.16026 27.1114
rfemur -10.7531 -3.09467 19.8715
rtibia 19.1994
rfoot -12.9622 -1.98089
rtoes 3.46037
lfemur -9.3511 8.81413 -17.6192
ltibia 16.3115
lfoot -10.9162 2.87769
ltoes -6.85119
96
root 0.56739 17.5412 -13.9368 5.16688 0.0592106 -1.81202
lowerback -4.3006 -0.683464 0.89895
upperback 1.59076 -1.03768 1.85727
thorax 4.07263 -0.517795 1.33202
lowerneck -12.8096 -0.226071 -2.45268
upperneck 3.19954 0.0239672 0.962615
head 3.31259 0.017106 0.756192
rclavicle -3.03147e-015 4.37326e-015
rhumerus -25.6372 -20.7819 -79.1927
rradius 24.3513
rwrist 34.1901
rhand -16.9373 -27.2131
rfingers 7.12502
rthumb 9.29581 -56.9881
lclavicle -3.03147e-015 4.37326e-015
lhumerus -22.9615 -2.46371 90.0685
lradius 19.4677
lwrist 3.14998
lhand -24.3282 -2.84458
lfingers 7.12502
lthumb 2.16041 27.1242
rfemur -10.7552 -3.09507 19.862
rtibia 19.2107
rfoot -12.9652 -1.97754
rtoes 3.45568
lfemur -9.35001 8.8138 -17.6278
ltibia 16.3182
lfoot -10.9153 2.88177
ltoes -6.86222
97
root 0.568488 17.5409 -13.938 5.15867 0.0562156 -1.80649
lowerback -4.29028 -0.685726 0.894694
upperback 1.59625 -1.04018 1.853
thorax 4.07252 -0.519102 1.32989
lowerneck -12.8155 -0.225193 -2.44474
upperneck 3.21576 0.0246389 0.953487
head 3.31935 0.0170622 0.751912
rclavicle -4.62174e-015 2.38542e-015
rhumerus -25.6452 -20.7898 -79.1761
rradius 24.3372
rwrist 34.2129
rhand -16.9463 -27.2039
rfingers 7.12502
rthumb 9.28715 -56.9793
lclavicle -4.62174e-015 2.38542e-015
lhumerus -22.9686 -2.44359 90.0532
lradius 19.471
lwrist 3.14818
lhand -24.3275 -2.82468
lfingers 7.12502
lthumb 2.16109 27.1441
rfemur -10.7559 -3.09684 19.851
rtibia 19.2217
rfoot -12.9688 -1.97249
rtoes 3.45057
lfemur -9.34806 8.81455 -17.6377
ltibia 16.3246
lfoot -10.9153 2.88487
ltoes -6.87512
98
root 0.569503 17.5406 -13.9392 5.15065 0.0558566 -1.80109
lowerback -4.27814 -0.689198 0.889257
upperback 1.60244 -1.04426 1.84986
thorax 4.07217 -0.521235 1.32949
lowerneck -12.8247 -0.223315 -2.43771
upperneck 3.23202 0.026955 0.943089
head 3.32669 0.0177661 0.7475
rclavicle -1.2424e-015 1.31198e-014
rhumerus -25.6504 -20.7824 -79.1653
rradius 24.3362
rwrist 34.202
rhand -16.9356 -27.2247
rfingers 7.12502
rthumb 9.29747 -56.9997
lclavicle -1.2424e-015 1.31198e-014
lhumerus -22.9773 -2.41726 90.0379
lradius 19.4783
lwrist 3.13459
lhand -24.3272 -2.79835
lfingers 7.12502
lthumb 2.16136 27.1705
rfemur -10.7566 -3.0977 19.8405
rtibia 19.2316
rfoot -12.9723 -1.97018
rtoes 3.45195
lfemur -9.34797 8.81616 -17.6473
ltibia 16.332
lfoot -10.9166 2.88543
ltoes -6.89019
99
root 0.570502 17.5404 -13.9405 5.14373 0.0579747 -1.79629
lowerback -4.26578 -0.693516 0.883906
upperback 1.60825 -1.04949 1.8477
thorax 4.07134 -0.523958 1.32997
lowerneck -12.8346 -0.22197 -2.43511
upperneck 3.24993 0.0290908 0.935607
head 3.33481 0.0184335 0.744846
rclavicle -5.66536e-015 6.36111e-015
rhumerus -25.6561 -20.7676 -79.1555
rradius 24.3414
rwrist 34.179
rhand -16.9221 -27.2511
rfingers 7.12502
rthumb 9.31047 -57.0255
lclavicle -5.66536e-015 6.36111e-015
lhumerus -22.9868 -2.38159 90.0218
lradius 19.4841
lwrist 3.10713
lhand -24.3253 -2.77875
lfingers 7.12502
lthumb 2.16324 27.19
rfemur -10.758 -3.09878 19.8307
rtibia 19.2414
rfoot -12.977 -1.96962
rtoes 3.45863
lfemur -9.35024 8.81677 -17.6565
ltibia 16.3402
lfoot -10.9178 2.88462
ltoes -6.90588
100
root 0.571464 17.5402 -13.9421 5.13716 0.0646009 -1.79156
lowerback -4.25067 -0.69901 0.879149
upperback 1.61327 -1.05626 1.84556
thorax 4.06816 -0.527428 1.33006
lowerneck -12.8442 -0.220432 -2.43301
upperneck 3.26637 0.0315011 0.928979
head 3.34236 0.0192752 0.742574
rclavicle -1.79403e-014 0
rhumerus -25.6649 -20.7423 -79.1481
rradius 24.3539
rwrist 34.142
rhand -16.9135 -27.2687
rfingers 7.12502
rthumb 9.31876 -57.0428
lclavicle -1.79403e-014 0
lhumerus -22.9965 -2.34705 90.0064
lradius 19.4871
lwrist 3.07681
lhand -24.3211 -2.7558
lfingers 7.12502
lthumb 2.16728 27.2129
rfemur -10.7593 -3.10135 19.8212
rtibia 19.2509
rfoot -12.9822 -1.97068
rtoes 3.47358
lfemur -9.35497 8.81469 -17.6654
ltibia 16.3507
lfoot -10.9194 2.88189
ltoes -6.91609
101
root 0.572361 17.5399 -13.9438 5.1324 0.073085 -1.78756
lowerback -4.23511 -0.704781 0.874492
upperback 1.61775 -1.0634 1.84398
thorax 4.06417 -0.531091 1.33063
lowerneck -12.8531 -0.218887 -2.4338
upperneck 3.28371 0.0341693 0.925205
head 3.3501 0.0203211 0.741785
rclavicle 8.19987e-015 -5.56597e-015
rhumerus -25.6769 -20.7102 -79.1416
rradius 24.3711
rwrist 34.1027
rhand -16.915 -27.271
rfingers 7.12502
rthumb 9.31739 -57.0451
lclavicle 8.19987e-015 -5.56597e-015
lhumerus -23.0048 -2.30689 89.9903
lradius 19.4852
lwrist 3.03664
lhand -24.3156 -2.74813
lfingers 7.12502
lthumb 2.17258 27.2206
rfemur -10.7635 -3.10229 19.8129
rtibia 19.261
rfoot -12.9864 -1.97355
rtoes 3.49766
lfemur -9.36419 8.80836 -17.6735
ltibia 16.3638
lfoot -10.9197 2.88108
ltoes -6.922
102
root 0.573194 17.5397 -13.9458 5.12928 0.0843772 -1.78391
lowerback -4.2186 -0.711297 0.869363
upperback 1.62106 -1.0715 1.84333
thorax 4.05849 -0.535256 1.33239
lowerneck -12.8596 -0.217253 -2.43692
upperneck 3.301 0.0371476 0.923216
head 3.35737 0.021561 0.742017
rclavicle -3.27995e-015 2.10712e-014
rhumerus -25.6902 -20.6779 -79.1339
rradius 24.389
rwrist 34.0701
rhand -16.9238 -27.2616
rfingers 7.12502
rthumb 9.30884 -57.0361
lclavicle -3.27995e-015 2.10712e-014
lhumerus -23.0132 -2.26837 89.9761
lradius 19.4811
lwrist 2.99878
lhand -24.3108 -2.74369
lfingers 7.12502
lthumb 2.17718 27.2249
rfemur -10.771 -3.10307 19.8056
rtibia 19.2723
rfoot -12.9888 -1.97905
rtoes 3.52152
lfemur -9.37776 8.7967 -17.6812
ltibia 16.3797
lfoot -10.919 2.88212
ltoes -6.92744
